# xmcd CD database file
#
# Track frame offsets:
#	150
#	11795
#	23474
#	34471
#	47212
#	58642
#	69155
#	79657
#	89538
#	102708
#
# Disc length: 1526 seconds
#
# Revision: 0
# Processed by: cddbd v1.5.1PL2 Copyright (c) Steve Scherf et al.
# Submitted via: CDex 1.51
#
DISCID=7f05f40a
DTITLE=Various Artist - Greatest Women of Country Music
DYEAR=1900
DGENRE=Country
TTITLE0=Patsy Cline - Walkin' After Midnight
TTITLE1=Goldie Hill - I Let The Stars Get In My Eyes
TTITLE2=Kitty Wells - Heartbreak U. S. A.
TTITLE3=Dottie West - I Fall To Pieces
TTITLE4=Lulu Belle and Scotty - Remember Me
TTITLE5=Martha Carson - Satisfied
TTITLE6=Skeeter Davis - My Last Date With You
TTITLE7=Jan Howard - Evil On Your Mind
TTITLE8=Wilma Burgess - Don't Touch Me
TTITLE9=Wanda Jackson - Tears Will Be The Chaser For Your WIne
EXTD=
EXTT0=
EXTT1=
EXTT2=
EXTT3=
EXTT4=
EXTT5=
EXTT6=
EXTT7=
EXTT8=
EXTT9=
PLAYORDER=
